<?xml version="1.0" encoding="utf-8"?>
<svg viewBox="0 0 32 32" xmlns="http://www.w3.org/2000/svg">
  <g id="background" transform="matrix(1, 0, 0, 1, 0, -8.881784197001252e-16)">
    <rect fill="none" height="32" width="32"/>
  </g>
  <g id="g-1" transform="matrix(1, 0, 0, 1, -1.984961986541748, 0.9022560119628897)">
    <rect fill="none" height="32" width="32" style="fill-rule: nonzero;"/>
  </g>
  <g id="text" transform="matrix(1, 0, 0, 1, -1.984961986541748, 0.9022560119628897)">
    <polygon points="4,6 4,10 12,10 12,28 16,28 16,10 24,10 24,6  " style="fill-rule: nonzero; fill: rgb(12, 41, 106);"/>
    <polygon points="30,4 30,2 24,2 24,4 26,4 26,28 24,28 24,30 30,30 30,28 28,28 28,4  " style="fill-rule: nonzero; fill: rgb(12, 41, 106);"/>
  </g>
</svg>